# xmcd
#
# Track frame offsets:
#	150
#	15360
#	30654
#	47868
#	65356
#	83802
#	98794
#	114744
#	129104
#	144506
#	163366
#	179124
#	195049
#
# Disc length: 2806 seconds
#
# Revision: 5
# Processed by: cddbd v1.5.2PL0 Copyright (c) Steve Scherf et al.
# Submitted via: Jack! The Knife 20 Magnifico
#
DISCID=a80af40d
DTITLE=Nek - Un'altra Direzione
DYEAR=2009
DGENRE=Pop
TTITLE0=Tira Su Il Volume
TTITLE1=Se Non Ami
TTITLE2=La Voglia Che Non Vorrei
TTITLE3=Semplici Emozioni
TTITLE4=Quante Cose Sei
TTITLE5=Un'altra Direzione
TTITLE6=Un'ora In Più
TTITLE7=Le Mie Mani
TTITLE8=Nel Giorno Che Verrà
TTITLE9=Per Non Morire Mai
TTITLE10=Perdere Il Controllo
TTITLE11=La Musica Che C'è
TTITLE12=Walking Away (Duet With Craig David)
EXTD=
EXTT0=de Sanctis, Neviani, Ronda
EXTT1=de Sanctis, Neviani
EXTT2=Gazzè, De Benedittis, Corona
EXTT3=Cesare Chiodo
EXTT4=de Sanctis, Giardi
EXTT5=Amati, Neviani
EXTT6=Gazzè, De Benedittis, Corona
EXTT7=de Sanctis, Neviani
EXTT8=de Sanctis, Vinci
EXTT9=de Sanctis, Neviani
EXTT10=Amati, Neviani
EXTT11=de Sanctis, Neviani
EXTT12=Craig David
PLAYORDER=
